HIERARCHY
ROOT hip
{
  OFFSET 0 0 0
  CHANNELS 6 Xposition Yposition Zposition Zrotation Yrotation Xrotation
  JOINT abdomen
  {
    OFFSET 0 20.6881 -0.73152
    CHANNELS 3 Zrotation Xrotation Yrotation
    JOINT chest
    {
      OFFSET 0 11.7043 -0.48768
      CHANNELS 3 Zrotation Xrotation Yrotation
      JOINT neck
      {
        OFFSET 0 22.1894 -2.19456
        CHANNELS 3 Zrotation Xrotation Yrotation
        JOINT head
        {
          OFFSET -0.24384 7.07133 1.2192
          CHANNELS 3 Zrotation Xrotation Yrotation
          JOINT leftEye
          {
            OFFSET 4.14528 8.04674 8.04672
            CHANNELS 3 Zrotation Xrotation Yrotation
            End Site
            {
              OFFSET 1 0 0
            }
          }
          JOINT rightEye
          {
            OFFSET -3.6576 8.04674 8.04672
            CHANNELS 3 Zrotation Xrotation Yrotation
            End Site
            {
              OFFSET 1 0 0
            }
          }
        }
      }
      JOINT rCollar
      {
        OFFSET -2.68224 19.2634 -4.8768
        CHANNELS 3 Zrotation Xrotation Yrotation
        JOINT rShldr
        {
          OFFSET -8.77824 -1.95073 1.46304
          CHANNELS 3 Zrotation Xrotation Yrotation
          JOINT rForeArm
          {
            OFFSET -28.1742 -1.7115 0.48768
            CHANNELS 3 Zrotation Xrotation Yrotation
            JOINT rHand
            {
              OFFSET -22.5879 0.773209 7.07136
              CHANNELS 3 Zrotation Xrotation Yrotation
              JOINT rThumb1
              {
                OFFSET -1.2192 -0.487915 3.41376
                CHANNELS 3 Zrotation Xrotation Yrotation
                JOINT rThumb2
                {
                  OFFSET -3.37035 -0.52449 3.41376
                  CHANNELS 3 Zrotation Xrotation Yrotation
                  End Site
                  {
                    OFFSET -1.78271 -1.18214 1.43049
                  }
                }
              }
              JOINT rIndex1
              {
                OFFSET -7.75947 0.938293 5.60832
                CHANNELS 3 Zrotation Xrotation Yrotation
                JOINT rIndex2
                {
                  OFFSET -2.54057 -0.884171 1.56538
                  CHANNELS 3 Zrotation Xrotation Yrotation
                  End Site
                  {
                    OFFSET -1.62519 -0.234802 1.16502
                  }
                }
              }
              JOINT rMid1
              {
                OFFSET -8.24714 1.18213 3.41376
                CHANNELS 3 Zrotation Xrotation Yrotation
                JOINT rMid2
                {
                  OFFSET -3.10165 -0.590103 1.0647
                  CHANNELS 3 Zrotation Xrotation Yrotation
                  End Site
                  {
                    OFFSET -2.48547 -0.328903 0.83742
                  }
                }
              }
              JOINT rRing1
              {
                OFFSET -8.82822 0.546677 1.51678
                CHANNELS 3 Zrotation Xrotation Yrotation
                JOINT rRing2
                {
                  OFFSET -2.60934 -0.819778 -0.0198488
                  CHANNELS 3 Zrotation Xrotation Yrotation
                  End Site
                  {
                    OFFSET -2.33842 -0.294052 0.168128
                  }
                }
              }
              JOINT rPinky1
              {
                OFFSET -8.27202 -0.0477905 -0.4584
                CHANNELS 3 Zrotation Xrotation Yrotation
                JOINT rPinky2
                {
                  OFFSET -1.82734 -0.647385 -0.700984
                  CHANNELS 3 Zrotation Xrotation Yrotation
                  End Site
                  {
                    OFFSET -1.69225 -0.51767 -0.607171
                  }
                }
              }
            }
          }
        }
      }
      JOINT lCollar
      {
        OFFSET 2.68224 19.2634 -4.8768
        CHANNELS 3 Zrotation Xrotation Yrotation
        JOINT lShldr
        {
          OFFSET 8.77824 -1.95073 1.46304
          CHANNELS 3 Zrotation Xrotation Yrotation
          JOINT lForeArm
          {
            OFFSET 28.1742 -1.7115 0.48768
            CHANNELS 3 Zrotation Xrotation Yrotation
            JOINT lHand
            {
              OFFSET 22.5879 0.773209 7.07136
              CHANNELS 3 Zrotation Xrotation Yrotation
              JOINT lThumb1
              {
                OFFSET 1.2192 -0.487915 3.41376
                CHANNELS 3 Zrotation Xrotation Yrotation
                JOINT lThumb2
                {
                  OFFSET 3.37035 -0.52449 3.41376
                  CHANNELS 3 Zrotation Xrotation Yrotation
                  End Site
                  {
                    OFFSET 1.78271 -1.18214 1.43049
                  }
                }
              }
              JOINT lIndex1
              {
                OFFSET 7.75947 0.938293 5.60832
                CHANNELS 3 Zrotation Xrotation Yrotation
                JOINT lIndex2
                {
                  OFFSET 2.54057 -0.884171 1.56538
                  CHANNELS 3 Zrotation Xrotation Yrotation
                  End Site
                  {
                    OFFSET 1.62519 -0.234802 1.16502
                  }
                }
              }
              JOINT lMid1
              {
                OFFSET 8.24714 1.18213 3.41376
                CHANNELS 3 Zrotation Xrotation Yrotation
                JOINT lMid2
                {
                  OFFSET 3.10165 -0.590103 1.0647
                  CHANNELS 3 Zrotation Xrotation Yrotation
                  End Site
                  {
                    OFFSET 2.48547 -0.328903 0.83742
                  }
                }
              }
              JOINT lRing1
              {
                OFFSET 8.82822 0.546677 1.51678
                CHANNELS 3 Zrotation Xrotation Yrotation
                JOINT lRing2
                {
                  OFFSET 2.60934 -0.819778 -0.0198488
                  CHANNELS 3 Zrotation Xrotation Yrotation
                  End Site
                  {
                    OFFSET 2.33842 -0.294052 0.168128
                  }
                }
              }
              JOINT lPinky1
              {
                OFFSET 8.27202 -0.0477905 -0.4584
                CHANNELS 3 Zrotation Xrotation Yrotation
                JOINT lPinky2
                {
                  OFFSET 1.82734 -0.647385 -0.700984
                  CHANNELS 3 Zrotation Xrotation Yrotation
                  End Site
                  {
                    OFFSET 1.69225 -0.51767 -0.607171
                  }
                }
              }
            }
          }
        }
      }
    }
  }
  JOINT rButtock
  {
    OFFSET -8.77824 4.35084 1.2192
    CHANNELS 3 Zrotation Xrotation Yrotation
    JOINT rThigh
    {
      OFFSET 0 -1.70687 -2.19456
      CHANNELS 3 Zrotation Xrotation Yrotation
      JOINT rShin
      {
        OFFSET 0 -36.8199 0.73152
        CHANNELS 3 Zrotation Xrotation Yrotation
        JOINT rFoot
        {
          OFFSET 0.73152 -45.1104 -5.12064
          CHANNELS 3 Zrotation Xrotation Yrotation
          End Site
          {
            OFFSET -1.1221 -3.69964 12.103
          }
        }
      }
    }
  }
  JOINT lButtock
  {
    OFFSET 8.77824 4.35084 1.2192
    CHANNELS 3 Zrotation Xrotation Yrotation
    JOINT lThigh
    {
      OFFSET 0 -1.70687 -2.19456
      CHANNELS 3 Zrotation Xrotation Yrotation
      JOINT lShin
      {
        OFFSET 0 -36.8199 0.73152
        CHANNELS 3 Zrotation Xrotation Yrotation
        JOINT lFoot
        {
          OFFSET -0.73152 -45.1104 -5.12064
          CHANNELS 3 Zrotation Xrotation Yrotation
          End Site
          {
            OFFSET 1.1221 -3.69964 12.103
          }
        }
      }
    }
  }
}
MOTION
Frames:	9
Frame Time:	0.00833333
4.82181 84.9173 -168.273 0.0 0.0 0.0 -0.140626 -0.000295012 -0.00400527 -0.038767 -0.000394543 -0.00671565 3.36674e-15 7.95139e-16 1.0871e-17 1.00573e-14 9.54166e-15 3.72721e-17 -0.0 0.0 0.0 -0.0 0.0 0.0 1.7381e-15 0.0 9.93923e-17 3.65542e-14 2.48481e-16 1.19271e-15 6.07734e-13 -1.76521e-13 -9.54166e-15 6.92325e-12 1.99033e-13 3.81667e-14 1.63356e-11 4.53301e-14 7.31528e-14 2.82028e-11 7.31528e-14 1.20861e-13 1.63405e-11 4.73108e-14 5.725e-14 7.73091 5.47488 0.417314 1.63361e-11 4.55217e-14 6.99722e-14 2.90554 0.965183 0.102902 1.63433e-11 4.53229e-14 7.07673e-14 10.2786 0.731801 0.0259123 1.63294e-11 4.65156e-14 7.95139e-14 2.22167 -0.733487 -0.20892 1.64135e-15 0.0 -9.93923e-17 3.3038e-14 6.83322e-17 -7.95139e-16 6.02566e-13 1.80496e-13 3.18055e-15 6.92515e-12 -1.85764e-13 2.8625e-14 1.63333e-11 -1.23098e-14 7.31528e-14 2.82207e-11 -2.54444e-14 1.26427e-13 1.63278e-11 -1.03368e-14 8.26944e-14 -7.73091 5.47488 -0.417314 1.63344e-11 -1.25234e-14 6.67917e-14 -2.90554 0.965183 -0.102902 1.63244e-11 -1.20265e-14 7.23576e-14 -10.2786 0.731801 -0.0259123 1.63359e-11 -1.11319e-14 6.36111e-14 -2.22167 -0.733487 0.20892 -2.03217e-16 0.0 -3.88251e-19 0.415459 -2.89234 -0.0363696 -0.00657584 -0.313962 -0.0578458 -0.521692 3.20536 0.125419 2.03217e-16 0.0 3.88251e-19 -0.629345 -3.43714 0.0497309 0.00497784 0.672916 0.0432301 0.523136 2.76331 -0.11651
4.59376 83.4605 -169.07 -2.4772 2.5065 1.6544 0.139023 0.884082 -0.44634 1.5636 -1.11135 -0.0834579 2.00505 -1.33134 0.489772 -3.71575 1.35505 0.401013 -0.0 0.0 0.0 -0.0 0.0 0.0 -1.61201e-14 -4.12011e-15 -5.1055e-16 20.834 2.73122 -0.583905 -3.5402 -1.49363 5.64791 0.00190095 -0.967375 -0.135886 1.8687e-10 5.64821e-11 -8.3087e-11 3.22746e-10 9.82035e-11 -1.4345e-10 1.8688e-10 5.64831e-11 -8.31013e-11 7.73091 5.47488 0.417314 1.86871e-10 5.64825e-11 -8.30884e-11 2.90554 0.965183 0.102902 1.86877e-10 5.64822e-11 -8.30885e-11 10.2786 0.731801 0.0259123 1.86865e-10 5.64838e-11 -8.30808e-11 2.22167 -0.733487 -0.20892 -1.61695e-14 -4.12317e-15 -7.02347e-16 -22.5237 7.10242 0.191411 4.00684 -1.78019 -6.30145 -0.00767689 -1.94397 0.272639 1.84951e-10 2.87491e-10 1.22556e-10 3.1916e-10 4.97155e-10 2.12539e-10 1.84943e-10 2.8749e-10 1.22564e-10 -7.73091 5.47488 -0.417314 1.84949e-10 2.87488e-10 1.2255e-10 -2.90554 0.965183 -0.102902 1.84946e-10 2.87489e-10 1.22553e-10 -10.2786 0.731801 -0.0259123 1.84955e-10 2.87491e-10 1.22547e-10 -2.22167 -0.733487 0.20892 -2.03217e-16 0.0 -3.88251e-19 0.826128 -5.99617 -0.995053 0.0159748 8.3613 0.0994063 -1.08269 -0.458549 -5.50021 2.03217e-16 0.0 3.88251e-19 1.08278 -5.92869 -0.775972 -0.0107668 8.38298 -0.0858463 0.88197 -0.387691 4.44464
4.58757 83.4583 -169.076 -2.5044 2.5015 1.6733 0.453197 1.82282 -0.923509 3.2579 -2.28728 -0.167085 4.15191 -2.7435 1.01527 -7.67523 2.79348 0.838928 -0.0 0.0 0.0 -0.0 0.0 0.0 -3.5642e-14 -8.86747e-15 -1.41945e-15 42.9106 5.63203 -1.20132 -6.9652 -3.02486 11.6324 -0.00108479 -1.99244 -0.280007 3.74077e-10 1.15813e-10 -1.84229e-10 6.46098e-10 2.01361e-10 -3.18116e-10 3.74091e-10 1.15813e-10 -1.84242e-10 7.73091 5.47488 0.417314 3.74077e-10 1.15813e-10 -1.84229e-10 2.90554 0.965183 0.102902 3.74082e-10 1.15813e-10 -1.8423e-10 10.2786 0.731801 0.0259123 3.74072e-10 1.15815e-10 -1.84223e-10 2.22167 -0.733487 -0.20892 -3.5637e-14 -8.87391e-15 -1.5996e-15 -46.3941 14.5992 0.406852 7.82272 -3.59241 -12.9872 0.00437754 -4.00242 0.562401 3.66014e-10 6.02833e-10 2.63855e-10 6.3152e-10 1.04244e-09 4.57554e-10 3.66002e-10 6.02828e-10 2.6386e-10 -7.73091 5.47488 -0.417314 3.66007e-10 6.02828e-10 2.63848e-10 -2.90554 0.965183 -0.102902 3.66012e-10 6.02829e-10 2.6385e-10 -10.2786 0.731801 -0.0259123 3.66019e-10 6.02832e-10 2.63846e-10 -2.22167 -0.733487 0.20892 -2.03217e-16 0.0 -3.88251e-19 1.1476 -9.27147 -2.02348 -0.0140235 17.5311 0.276277 -2.45456 -4.24837 -11.4805 2.03217e-16 0.0 3.88251e-19 2.81553 -8.56015 -1.65863 0.0117257 16.5346 -0.229922 1.80492 -3.6724 9.28304
4.56444 83.453 -169.079 -2.5587 2.3923 1.7317 0.73932 2.6522 -1.33228 4.7594 -3.33324 -0.237297 6.08357 -3.99286 1.47249 -11.2043 4.06435 1.20573 -0.0 0.0 0.0 -0.0 0.0 0.0 -5.18364e-14 -1.23603e-14 -1.73044e-15 62.6705 8.19024 -1.76776 -9.74939 -4.30703 16.9874 -0.00807773 -2.90206 -0.408122 5.27939e-10 1.69356e-10 -2.49407e-10 9.11832e-10 2.94464e-10 -4.30592e-10 5.27958e-10 1.69355e-10 -2.49418e-10 7.73091 5.47488 0.417314 5.27939e-10 1.69356e-10 -2.49405e-10 2.90554 0.965183 0.102902 5.27943e-10 1.69356e-10 -2.49407e-10 10.2786 0.731801 0.0259123 5.27936e-10 1.69358e-10 -2.49401e-10 2.22167 -0.733487 -0.20892 -5.17913e-14 -1.23695e-14 -1.90826e-15 -67.7223 21.3063 0.611633 10.8656 -5.08268 -18.9726 0.0327147 -5.83137 0.821699 5.22187e-10 8.62498e-10 3.67523e-10 9.0104e-10 1.49152e-09 6.37363e-10 5.22173e-10 8.6249e-10 3.67526e-10 -7.73091 5.47488 -0.417314 5.22177e-10 8.6249e-10 3.67516e-10 -2.90554 0.965183 -0.102902 5.22188e-10 8.62492e-10 3.67515e-10 -10.2786 0.731801 -0.0259123 5.22194e-10 8.62496e-10 3.67513e-10 -2.22167 -0.733487 0.20892 -2.03217e-16 0.0 -3.88251e-19 1.32943 -12.1907 -2.96305 -0.0939699 25.7111 0.455875 -4.34494 -7.46016 -16.8978 2.03217e-16 0.0 3.88251e-19 4.28802 -10.9036 -2.45917 0.0697085 23.8027 -0.372966 3.09729 -6.50565 13.656
4.56155 83.4502 -169.026 -2.5384 2.324 1.7634 0.92473 3.20882 -1.56876 5.78569 -4.05429 -0.27361 7.42698 -4.83644 1.75585 -13.6135 4.9172 1.39195 -0.0 0.0 0.0 -0.0 0.0 0.0 -5.97116e-14 -1.2717e-14 -5.46658e-16 76.5196 9.89512 -2.19133 -11.5419 -5.1325 20.7267 -0.0152476 -3.52313 -0.495775 5.98442e-10 2.08429e-10 -2.24674e-10 1.03352e-09 3.62431e-10 -3.87589e-10 5.98462e-10 2.08428e-10 -2.24684e-10 7.73091 5.47488 0.417314 5.98441e-10 2.0843e-10 -2.24671e-10 2.90554 0.965183 0.102902 5.98444e-10 2.0843e-10 -2.24674e-10 10.2786 0.731801 0.0259123 5.98438e-10 2.08432e-10 -2.24668e-10 2.22167 -0.733487 -0.20892 -5.96624e-14 -1.27273e-14 -7.45443e-16 -82.5816 26.0403 0.753252 12.7859 -6.01525 -23.1416 0.0620006 -7.08709 1.00119 6.16136e-10 9.82969e-10 3.77112e-10 1.06346e-09 1.7001e-09 6.54153e-10 6.16122e-10 9.8296e-10 3.77115e-10 -7.73091 5.47488 -0.417314 6.16125e-10 9.82961e-10 3.77106e-10 -2.90554 0.965183 -0.102902 6.16138e-10 9.82963e-10 3.77104e-10 -10.2786 0.731801 -0.0259123 6.16143e-10 9.82967e-10 3.77102e-10 -2.22167 -0.733487 0.20892 -2.03217e-16 0.0 -3.88251e-19 1.38817 -14.2316 -3.63639 -0.185665 31.4174 0.601756 -6.02759 -9.56146 -20.7376 2.03217e-16 0.0 3.88251e-19 5.26545 -12.5344 -3.02725 0.134855 28.8623 -0.485768 4.26012 -8.39863 16.7621
4.56248 83.4463 -168.996 -2.5228 2.2688 1.8055 0.939472 3.37844 -1.53002 6.15924 -4.31081 -0.252959 7.90783 -5.10708 1.76938 -14.4119 5.17037 1.27918 -0.0 0.0 0.0 -0.0 0.0 0.0 -5.57714e-14 -5.85253e-15 4.60388e-15 82.0409 10.3619 -2.40664 -12.2047 -5.43279 22.1782 -0.0183778 -3.74612 -0.527292 5.50465e-10 2.46005e-10 -3.09259e-11 9.50392e-10 4.27762e-10 -5.21933e-11 5.50485e-10 2.46003e-10 -3.09343e-11 7.73091 5.47488 0.417314 5.50464e-10 2.46006e-10 -3.09229e-11 2.90554 0.965183 0.102902 5.50467e-10 2.46006e-10 -3.09252e-11 10.2786 0.731801 0.0259123 5.50461e-10 2.46007e-10 -3.09186e-11 2.22167 -0.733487 -0.20892 -5.578e-14 -5.86174e-15 4.33754e-15 -88.3166 28.0485 0.757838 13.4698 -6.33404 -24.721 0.0746831 -7.53211 1.06518 6.48154e-10 9.01986e-10 2.36553e-10 1.11962e-09 1.56066e-09 4.10848e-10 6.48142e-10 9.01978e-10 2.36557e-10 -7.73091 5.47488 -0.417314 6.48144e-10 9.01978e-10 2.36547e-10 -2.90554 0.965183 -0.102902 6.48154e-10 9.0198e-10 2.36546e-10 -10.2786 0.731801 -0.0259123 6.48161e-10 9.01984e-10 2.36543e-10 -2.22167 -0.733487 0.20892 -2.03217e-16 0.0 -3.88251e-19 1.3724 -15.0521 -3.91176 -0.231273 33.6624 0.66569 -6.76547 -10.362 -22.237 2.03217e-16 0.0 3.88251e-19 5.61612 -13.1712 -3.25284 0.16681 30.8282 -0.533699 4.77908 -9.11661 18.0152
4.56586 83.4421 -168.965 -2.4984 2.2251 1.8521 0.831459 3.2719 -1.29613 6.06642 -4.23599 -0.192018 7.76981 -4.96887 1.59086 -14.0596 4.99585 0.954723 -0.0 0.0 0.0 -0.0 0.0 0.0 -4.33995e-14 6.03506e-15 1.24986e-14 81.5999 9.94723 -2.46992 -12.1177 -5.39044 21.9889 -0.0176707 -3.6845 -0.518588 4.17946e-10 2.81618e-10 2.81494e-10 7.21122e-10 4.89661e-10 4.88496e-10 4.17964e-10 2.81615e-10 2.81486e-10 7.73091 5.47488 0.417314 4.17943e-10 2.81618e-10 2.81496e-10 2.90554 0.965183 0.102902 4.17947e-10 2.81618e-10 2.81494e-10 10.2786 0.731801 0.0259123 4.1794e-10 2.81619e-10 2.81502e-10 2.22167 -0.733487 -0.20892 -4.35095e-14 6.02849e-15 1.21321e-14 -87.5209 28.108 0.657158 13.3436 -6.26177 -24.4416 0.0715668 -7.39858 1.04602 6.34737e-10 6.7742e-10 -1.03778e-11 1.0978e-09 1.17317e-09 -1.6724e-11 6.34728e-10 6.77414e-10 -1.03702e-11 -7.73091 5.47488 -0.417314 6.3473e-10 6.77414e-10 -1.03827e-11 -2.90554 0.965183 -0.102902 6.34732e-10 6.77416e-10 -1.03821e-11 -10.2786 0.731801 -0.0259123 6.34742e-10 6.77418e-10 -1.03873e-11 -2.22167 -0.733487 0.20892 -2.03217e-16 0.0 -3.88251e-19 1.3289 -15.0033 -3.89446 -0.226157 33.4352 0.659216 -6.67983 -10.3077 -22.0291 2.03217e-16 0.0 3.88251e-19 5.5361 -13.0995 -3.22905 0.163252 30.5846 -0.527948 4.73115 -9.03785 17.9214
4.5713 83.4375 -168.934 -2.4699 2.1983 1.8999 0.702461 3.06378 -1.03731 5.77125 -4.04409 -0.129811 7.41352 -4.67602 1.37452 -13.2901 4.67402 0.616765 -0.0 0.0 0.0 -0.0 0.0 0.0 -2.79251e-14 1.54033e-14 1.84924e-14 78.771 9.25321 -2.46831 -11.7302 -5.21073 21.1437 -0.0154023 -3.49969 -0.492483 2.54447e-10 2.86431e-10 5.72358e-10 4.38427e-10 4.98096e-10 9.91745e-10 2.54463e-10 2.86427e-10 5.72351e-10 7.73091 5.47488 0.417314 2.54444e-10 2.8643e-10 5.72358e-10 2.90554 0.965183 0.102902 2.54449e-10 2.86431e-10 5.72357e-10 10.2786 0.731801 0.0259123 2.5444e-10 2.86431e-10 5.72367e-10 2.22167 -0.733487 -0.20892 -2.81356e-14 1.54001e-14 1.80351e-14 -84.1323 27.331 0.548127 12.8965 -6.03543 -23.4307 0.0626918 -7.04724 0.995616 5.62853e-10 4.05956e-10 -2.70353e-10 9.74903e-10 7.04583e-10 -4.67007e-10 5.62849e-10 4.05953e-10 -2.70343e-10 -7.73091 5.47488 -0.417314 5.6285e-10 4.05952e-10 -2.70357e-10 -2.90554 0.965183 -0.102902 5.62843e-10 4.05953e-10 -2.70355e-10 -10.2786 0.731801 -0.0259123 5.62856e-10 4.05954e-10 -2.70363e-10 -2.22167 -0.733487 0.20892 -2.03217e-16 0.0 -3.88251e-19 1.28437 -14.6044 -3.75459 -0.200731 32.2167 0.624467 -6.2654 -9.90614 -21.1449 2.03217e-16 0.0 3.88251e-19 5.29091 -12.7459 -3.10571 0.145406 29.4606 -0.500837 4.45576 -8.64124 17.2876
4.57471 83.4328 -168.907 -2.4536 2.1823 1.9486 0.650671 2.92883 -0.923559 5.53872 -3.94939 -0.10529 7.23571 -4.483 1.2742 -12.8289 4.48574 0.462766 -0.0 0.0 0.0 -0.0 0.0 0.0 -1.46772e-14 1.47097e-14 1.79403e-14 77.13 8.88176 -2.48867 -11.4901 -5.09794 20.6277 -0.0138093 -3.35311 -0.471793 1.13533e-10 2.31608e-10 7.0144e-10 1.95029e-10 4.03037e-10 1.21482e-09 1.13547e-10 2.31604e-10 7.01433e-10 7.73091 5.47488 0.417314 1.1353e-10 2.31606e-10 7.0144e-10 2.90554 0.965183 0.102902 1.13535e-10 2.31608e-10 7.01439e-10 10.2786 0.731801 0.0259123 1.13526e-10 2.31607e-10 7.01449e-10 2.22167 -0.733487 -0.20892 -1.49427e-14 1.47099e-14 1.74434e-14 -82.0816 26.8296 0.524866 12.6196 -5.89278 -22.8158 0.0577077 -6.83887 0.965776 4.19471e-10 1.8428e-10 -4.50048e-10 7.27817e-10 3.21843e-10 -7.78448e-10 4.19471e-10 1.84279e-10 -4.50036e-10 -7.73091 5.47488 -0.417314 4.19472e-10 1.84277e-10 -4.50052e-10 -2.90554 0.965183 -0.102902 4.19459e-10 1.84278e-10 -4.50048e-10 -10.2786 0.731801 -0.0259123 4.19473e-10 1.84277e-10 -4.50058e-10 -2.22167 -0.733487 0.20892 -2.03217e-16 0.0 -3.88251e-19 1.26341 -14.3746 -3.663 -0.186414 31.4878 0.604269 -6.02424 -9.66189 -20.6179 2.03217e-16 0.0 3.88251e-19 5.14529 -12.5372 -3.03288 0.134956 28.7851 -0.484976 4.29859 -8.40282 16.9223
